<svg version="1.2" xmlns="http://www.w3.org/2000/svg" viewBox="0 0 575 596" width="575" height="596"><style>.a{fill:pearl}</style><path fill-rule="evenodd" class="a" d="m0 0h408v24h25.5l0.8-11.2c0.4-6.2 0.9-11.4 1-11.6 0.1-0.1 31.2-0.2 69.2-0.2 37.9 0.1 69.3 0.3 69.7 0.5 0.5 0.3 0.8 13.5 0.8 58.5l-130.5 0.5-0.5 57.5h-44v-12c0-11-0.2-12.1-2-13-1.1-0.6-2.9-2.5-4-4.3-1.1-1.7-2-4.4-2-6 0-1.5 0.7-4.1 1.5-5.7 0.8-1.7 2.8-3.9 4.5-5 1.7-1.2 4.7-2 7-2 3 0 4.9 0.7 7.5 3 2.1 1.8 3.7 4.3 4.1 6.2 0.4 1.8 0.3 4.6-0.1 6.3-0.4 1.6-2 4.2-3.6 5.7-2.7 2.6-2.9 3.3-2.4 16.3l23.5 0.5v-48l-52.5 0.5-0.3 59.5c-0.1 32.7 0 60.5 0.3 61.7 0.5 2.3 0.7 2.3 29 1.8l0.5-41.5 81.5-0.5 0.2-8.3c0.3-7.6 0.5-8.2 2.5-8.7 1.3-0.3 11.3-0.4 42.3 0v44h-44l-1-16.9h-4c-2.2 0-18.3 0.1-67.5 0.4v14.7c0 8.2 0.4 15.4 0.8 16 0.5 1 16.2 1.2 142.7 0.8l0.5-88.5h-82l-1.8 2.4c-0.9 1.3-2.9 2.9-4.5 3.5-1.5 0.6-3.9 1.1-5.5 1.1-1.5 0-4.2-0.9-6-2-1.8-1.1-3.9-3.7-4.8-5.8-1-2.3-1.3-4.8-0.8-6.7 0.3-1.7 1.5-4.2 2.5-5.8 1.1-1.6 3.4-3.1 5.6-3.7 2.4-0.6 5.1-0.6 7.3 0 1.9 0.5 4.8 2.3 9.5 7h90.5v108l-3.3 0.3c-1.7 0.1-45.3 0.4-96.7 0.5-51.4 0.1-133.2 0.2-270 0.2v103h28v-24c0-23-0.1-24-2-25-1.1-0.6-2.7-2.4-3.5-4-0.8-1.7-1.5-4.5-1.5-6.3 0-1.7 0.9-4.7 2-6.5 1.1-1.7 3.2-3.7 4.7-4.3 1.6-0.6 4.3-1.1 6-1 1.8 0 4.6 0.9 6.3 1.8 1.6 1 3.7 3.4 4.6 5.3 1.1 2.3 1.4 4.7 1 7-0.4 2-2.1 5-7.6 10.5l0.5 46 93.5 0.5 0.5-16.5 44.5-0.5-0.5 315.5-187.5 0.5v-55h16c15.6 0 16.1-0.1 19-2.5 2.9-2.4 3-2.7 3-20.5l-37.5-0.5-0.2-37.5c-0.2-29 0-37.7 1-38.2 0.6-0.4 17.1-0.8 71.7-0.8v-24l57.5-0.1 3.7-3.4c3-2.8 4.6-3.5 7.8-3.5 2.2 0 5.2 0.7 6.7 1.5 1.6 0.9 3.6 2.9 4.5 4.5 1 1.7 1.8 4.3 1.8 6 0 1.6-0.8 4.3-1.8 6-0.9 1.6-3.1 3.7-4.7 4.6-1.7 0.9-4.4 1.7-6 1.7-1.7 0-4.1-0.6-5.5-1.3-1.4-0.8-3.3-2.4-4.3-3.7-1.6-2.2-2.3-2.3-25.7-2.3v98l16.5 0.5v44h-44l-0.2-20c-0.2-11 0-21 0.2-22.3 0.5-2 1.1-2.2 17-2.7v-47.8c0-26.4-0.2-48.3-0.5-48.8-0.3-0.5-3.2-0.8-12.5-0.4l-1 24-71.5 0.5v56l26.5-0.5 0.3-7.5c0.2-6.7 0-7.8-2.2-10-1.3-1.4-2.9-3.5-3.5-4.8-0.6-1.2-1.1-3.6-1.1-5.2 0-1.7 0.5-4 1-5.3 0.6-1.2 2.5-3.2 4.3-4.4 1.8-1.3 4.8-2.3 6.7-2.3 2 0 5 0.9 7 2.3 2.2 1.4 4 3.7 4.7 6 1 2.7 1 4.7 0.3 7.4-0.6 2.1-2.4 5-7 9.3v43l3 2c1.8 1.2 3.4 3.4 4.1 5.7 0.8 2.9 0.7 4.8-0.3 7.8-0.8 2.5-2.6 4.8-4.8 6.3-2.8 1.9-4.4 2.3-8 1.9-3.7-0.4-5.1-1.2-11.5-8.6l-19.5-0.1v35l166.5-0.5 0.2-89.5c0.1-49.2 0-91.4-0.7-98h-134v15h-45v-22c0-13.7 0.4-22.2 1-22.5 0.7-0.3 1-30.5 1-174.5l-193.5-0.5-0.5-60.5 130.5 0.5 0.5-57.5 44.5 0.5 0.5 23.5 3.5 3.5c2.8 2.8 3.5 4.3 3.5 7.5 0 2.2-0.7 5.2-1.5 6.7-0.9 1.6-2.9 3.6-4.5 4.5-1.7 1-4.8 1.8-7 1.8-3 0-4.9-0.8-7.5-3-2.1-1.8-3.7-4.3-4.1-6.3-0.4-1.7-0.3-4.6 0.1-6.2 0.4-1.7 2-4.2 3.6-5.8 2.6-2.4 2.9-3.3 2.9-9.2 0-5.9-0.2-6.5-2.3-7-1.2-0.3-5.6-0.5-9.7-0.5-4.1 0-8.5 0.2-12 1v47h53l-0.5-122.5-144.5-0.5 0.2 16.2c0.3 13.6 0.5 16.3 1.8 16.4 0.8 0.1 4.8 0.2 16 0.4l-0.5 44.5h-44v-44.8l15.5 0.3v-33h-27v88h40.5c37.9 0 40.6-0.1 41.7-1.8 0.7-1 2.4-2.6 3.8-3.5 1.4-1 4.4-1.7 6.7-1.7 3.5 0 5 0.7 8 3.4 3.5 3.2 3.8 3.9 3.8 9 0 4.7-0.4 5.9-3 8.5-1.7 1.7-4.4 3.4-6 3.7-1.7 0.3-4.5 0.3-6.3 0-1.7-0.3-4.4-2-8.7-6.7l-91.5 0.1zm381 32.2c0 14.1 0.2 16.9 1.5 17.3 0.8 0.3 41.4 0.5 90.2 0.5 48.9 0 89.6 0 90.5 0 1.7 0 1.8-1.6 1.8-19.5v-19.5h-120c0 5.8-0.3 11-0.7 15.3l-0.8 7.7h-45.5v-23c-15.3 0-15.8 0.2-16.4 2.2-0.3 1.3-0.6 9.8-0.6 19zm-116.2 1.5c0.2 8.7 0.3 9.3 2.4 9.9 1.3 0.3 3.4 0.4 4.8 0.2 2.5-0.3 2.5-0.4 2.5-10.3v-10c-6.3-0.5-8.5-0.3-9 0.1-0.4 0.4-0.8 4.9-0.7 10.1zm17.4 0.9l0.3 8.9c4.6 0.5 7 0.4 8.2 0.1 2.2-0.6 2.3-1 2-10.4l-0.2-9.7c-8-0.5-9.6-0.2-10 0.8-0.3 0.7-0.4 5.4-0.3 10.3zm17 0c0.3 8.7 0.4 8.9 2.8 9.2 1.4 0.2 3.5 0.1 4.7-0.2 2.2-0.6 2.3-1 2-10.4l-0.2-9.7c-7.1-0.5-8.6-0.2-9 0.8-0.3 0.7-0.4 5.4-0.3 10.3zm16.9-1.4l-0.1 10.3h9.5v-20l-9.4-0.6zm17.2 1.4c0.2 8 0.5 8.9 2.3 9.2 1.1 0.2 3.4 0.1 5.2-0.2l3.3-0.6-0.5-19.5c-8.1-0.5-9.6-0.2-10 0.8-0.3 0.7-0.5 5.4-0.3 10.3zm17 0l0.3 8.9h9l0.4-20.5c-7.3 0-9.2 0.5-9.5 1.3-0.3 0.8-0.4 5.4-0.2 10.3zm-139.2 59.4h20v-10h-20zm0 17l19.5-0.5 0.5-10.5h-20zm0 17h20v-10h-20zm0 11.5v5.5l19.5-0.5v-10l-19.5-0.6zm-199.8 23.8l0.3 19.3h182v-37c-17.1-1-58.1-1.3-102.3-1.4l-80.2-0.2zm199.7-2.2h20v-10h-20zm0 18h20v-10h-20zm-6 190l9.5-0.5 0.5-42.5c5.9-0.1 25.5-0.2 47.5-0.3l40-0.2 0.5-18.5h-98zm108-33l-87.5 0.5v32l11.5 0.5v19h134c0.2-44.6 0.4-58.4 0.5-59.5 0.2-1.1 0.2-2.6 0-3.3-0.4-0.9-4.7-1.2-17-1.2-16.2 0-16.5 0-17.1-2.3-0.3-1.2-0.5-4.5-0.4-7.2 0.1-2.8 0.2-5.6 0.1-6.3 0-0.9-3.2-1.2-12.1-1.2h-12zm-223-312v20.5l-9.5-0.1-0.2-8.9c-0.2-4.9-0.1-9.5 0.2-10.2 0.3-0.8 2.2-1.3 9.5-1.3zm17.5 0.5v20h-4c-2.2 0-4.5-0.1-5.2-0.2-0.9-0.2-1.3-3.1-1.4-9.7-0.1-5.1 0.2-9.6 0.7-10 0.5-0.4 2.9-0.6 9.9-0.1zm17 0l0.5 19.5-2.7 0.2c-1.5 0.2-4 0.2-8.3-0.2l-0.1-9.4c-0.1-5.1 0.2-9.6 0.7-10 0.5-0.4 2.9-0.6 9.9-0.1zm6.5-0.5h10l0.1 9.7c0 5.4-0.2 10-0.4 10.3-0.3 0.3-2.5 0.4-9.7 0zm27.5 0.5l0.5 19.5c-1.3 0-5.6 0-6.5 0-0.8 0-2.1 0-3 0-1.2 0-1.5-1.8-1.6-9.4-0.1-5.1 0.2-9.6 0.7-10 0.5-0.4 2.9-0.6 9.9-0.1zm16.5-0.5v20l-4.2 0.3c-2.3 0.2-4.6 0.2-5 0-0.4-0.2-0.8-4.5-0.9-9.7-0.1-5.1 0.2-9.6 0.6-10 0.5-0.3 2.8-0.6 9.5-0.6zm113.8 182c1.2 0 3.9 0.8 5.9 1.7 2 1 4 2.6 4.5 3.5 0.8 1.6 2.9 1.8 45.3 1.8l3.4-3.3c2.7-2.7 4-3.2 8-3.2 2.8 0 5.8 0.7 7.4 1.7 1.5 1 3.5 3.5 4.3 5.5 1 2.2 1.4 5.1 1.1 6.8-0.3 1.6-1.5 4.2-2.6 5.7-1.1 1.5-3.7 3.3-5.8 3.9-2.1 0.6-5 0.9-6.5 0.5-1.5-0.3-4.2-1.9-9.3-6.5l-44-0.1-3 3c-1.6 1.7-4.3 3.3-6 3.6-1.6 0.4-4.3 0.3-6-0.1-1.6-0.4-4.1-1.9-5.5-3.4-1.4-1.4-2.9-4.4-3.3-6.6-0.5-3.1-0.3-4.8 1.1-7.5 1.1-1.9 3.4-4.3 5.3-5.3 1.9-0.9 4.5-1.7 5.7-1.7zm0.2 34.1c2-0.1 4.9 0.8 6.5 1.8 1.7 1 3.4 2.6 3.8 3.5 0.7 1.4 3.5 1.6 45.2 1.5l3.8-3.5c2.9-2.6 4.6-3.4 7.5-3.4 2.1 0 5.2 0.9 7 2 1.8 1.1 4 3.7 4.8 5.7 1 2.3 1.4 5 1 7-0.3 1.8-1.9 4.6-3.6 6.3-1.8 1.8-4.4 3.2-6.7 3.6-2.1 0.3-4.9 0.1-6.3-0.5-1.3-0.6-3.6-2.2-7.5-6.2l-44 0.1-2.7 3c-1.5 1.6-4.2 3.2-6 3.6-1.8 0.3-4.4 0.3-5.8 0-1.3-0.3-3.9-2-5.7-3.8-1.8-1.9-3.4-4.8-3.7-6.6-0.4-2.1 0.1-4.6 1.4-7.2 1.1-2.2 3.3-4.7 4.8-5.5 1.5-0.8 4.3-1.4 6.2-1.4zm53.1 205.8l19.4 0.6 0.5 9.5h-20l0.1-5.1zm0 16l19.4 0.6 0.5 9.5h-20v-5zm0 18l19.5 0.6v9l-19.5 0.5v-5.1zm-0.2 17.1h20.1l-0.5 9.5h-19zm0.2 15.9l19.5 0.6v9l-19.5 0.5v-5zm0 18l19.4 0.5v9l-19.5 0.5 0.1-5zm127.9-512.5c3.2 0.3 5.3 1.3 10.5 6.5h22.2c21.3 0.1 22.3 0 23.3-1.9 0.5-1.1 2.3-2.7 4-3.5 1.6-0.9 4-1.5 5.2-1.6 1.3 0 3.6 0.5 5.3 1.1 1.6 0.5 4 2.5 5.2 4.2 1.4 2.1 2.2 4.7 2.2 7.3 0 2.7-0.8 5-2.4 7.2-1.5 1.9-4 3.7-6 4.3-2.3 0.6-4.6 0.6-6.8 0-1.8-0.5-4.3-2.1-8.2-6.1l-44.4 0.1-2.8 2.8c-1.5 1.6-4.4 3.3-6.3 3.7-2.6 0.5-4.6 0.2-7.4-1.2-2.1-1-4.7-3.2-5.7-4.8-1-1.7-1.9-4.3-1.9-5.8 0-1.5 0.7-4.1 1.5-5.7 0.8-1.7 2.9-4 4.7-5.1 2.5-1.6 4.3-1.9 7.8-1.5zm-432.3 132.6c1.3 0 3.7 0.7 5.5 1.6 1.8 0.9 3.8 2.4 4.4 3.3 1 1.4 7.1 1.7 103.7 3.2l3.1-3c1.7-1.7 4.2-3.5 5.6-4.1 1.5-0.6 4.2-0.8 6.5-0.3 2.2 0.4 5.2 1.8 6.6 3.2 1.5 1.5 2.9 4.2 3.4 6.6 0.4 2.6 0.2 5-0.7 6.9-0.7 1.6-2.6 3.9-4.1 5.2-1.9 1.6-4 2.4-6.7 2.4-2.2 0-5.4-0.7-7-1.5-1.7-0.9-3.5-2.4-4-3.5-1-2-2-2-104-2l-2.8 3.1c-2.2 2.6-3.7 3.2-8.2 3.6-5.2 0.5-5.7 0.4-9.3-2.8-2.9-2.6-4-4.4-4.3-7.4-0.4-2.7 0.1-5.2 1.3-7.5 1-2 3.3-4.3 5.3-5.3 1.9-0.9 4.5-1.7 5.7-1.7zm228.8 204c3.8 0 4.6 0.3 5 2.2 0.3 1.3 0.4 5.6 0 17.3h-10l-0.3-7.5c-0.2-4.2-0.1-8.5 0.2-9.8 0.5-1.9 1.3-2.2 5.1-2.2zm12.5 0h10v20h-10zm17 0h10v20h-10zm16 0h10v20h-10zm18 0h10v20h-10zm26 0v20h-9l-0.6-5.3c-0.3-2.9-0.3-7.3 0-9.7 0.2-2.5 0.5-4.6 0.5-4.8 0.1-0.1 2.1-0.2 9.1-0.2z"/></svg>